<?xml version="1.0" encoding="UTF-8" standalone="no"?>
<!DOCTYPE svg PUBLIC "-//W3C//DTD SVG 1.1//EN" "http://www.w3.org/Graphics/SVG/1.1/DTD/svg11.dtd">
<svg width="100%" height="100%" viewBox="0 0 17 15" version="1.1" xmlns="http://www.w3.org/2000/svg" xmlns:xlink="http://www.w3.org/1999/xlink" xml:space="preserve" xmlns:serif="http://www.serif.com/" style="fill-rule:evenodd;clip-rule:evenodd;stroke-linejoin:round;stroke-miterlimit:2;">
    <g id="ico_cart" transform="matrix(1,0,0,0.999207,-1128.94,-20.9836)">
        <path d="M1138.93,33.035C1138.12,33.035 1137.45,33.698 1137.45,34.517C1137.45,35.336 1138.12,36 1138.93,36C1139.74,36 1140.4,35.336 1140.4,34.517C1140.4,33.698 1139.74,33.035 1138.93,33.035ZM1132.79,33.035C1131.97,33.035 1131.31,33.698 1131.31,34.517C1131.31,35.336 1131.97,36 1132.79,36C1133.6,36 1134.26,35.336 1134.26,34.517C1134.26,33.698 1133.6,33.035 1132.79,33.035ZM1139.14,30.499L1141.46,21.529L1142.44,21L1144.97,21.032L1144.52,22.577L1142.97,22.515L1140.84,31.285L1140.36,32.009L1131.11,32.009L1130.75,31.285L1128.94,23.886L1130.68,23.778L1132.37,30.499L1139.14,30.499ZM1138.44,28.25L1138.44,28.625L1133.31,28.625L1133.31,28.25L1138.44,28.25ZM1138.88,26.219L1138.88,26.594L1133,26.594L1133,26.219L1138.88,26.219ZM1139.44,24.188L1139.44,24.563L1132.25,24.563L1132.25,24.188L1139.44,24.188Z" style="fill:rgb(38,38,38);fill-opacity:0.85;"/>
    </g>
</svg>
